<mxfile host="app.diagrams.net" modified="2024-05-14T20:45:40.217Z" agent="Mozilla/5.0 (X11; Linux x86_64) AppleWebKit/537.36 (KHTML, like Gecko) Chrome/117.0.0.0 Safari/537.36" version="24.3.1" etag="wtnW88Zo6h1nFJQ-dP3l" type="github">
  <diagram name="PÃ¡gina-1" id="YqoV2e6sQSvUU3LPNgo_">
    <mxGraphModel>
      <root>
        <mxCell id="0" />
        <mxCell id="1" parent="0" />
      </root>
    </mxGraphModel>
  </diagram>
</mxfile>
